<svg width="384" height="424" viewBox="0 0 384 424" fill="none" xmlns="http://www.w3.org/2000/svg">
<mask id="mask0_383_447" style="mask-type:luminance" maskUnits="userSpaceOnUse" x="0" y="0" width="384" height="424">
<path d="M237.687 2.72779C228.55 5.56826 224.076 12.1496 214.03 13.5908C206.079 14.7342 198.183 13.8451 190.219 12.9567C180.588 11.8817 170.856 10.8066 160.802 13.322C138.573 18.8839 117.7 37.3952 116.823 60.7724C116.443 70.9111 119.767 80.9968 118.76 91.0929C115.825 120.544 81.5589 132.643 58.1689 150.104C25.4278 174.554 10.3637 216.909 3.97788 257.842C-2.27679 297.915 -1.82859 339.632 10.1891 378.301C12.4542 385.59 15.3985 393.143 21.3514 397.774C25.3023 400.851 30.1947 402.321 34.9664 403.728C75.9238 415.769 118.244 427.31 160.627 422.7C238.82 414.199 301.84 352.433 344.702 285.041C356.88 265.89 368.062 245.829 374.777 224.043C389.195 177.276 382.019 126.769 374.708 78.3076C372.323 62.4903 369.369 45.4974 358.178 34.3053C350.594 26.7197 340.244 22.9056 330.235 19.3047C308.536 11.4995 281.633 0.0048031 256.859 0.00319377C250.369 -0.0615043 243.905 0.857111 237.69 2.72779" fill="white"/>
</mask>
<g mask="url(#mask0_383_447)">
<path d="M412.062 -52H14V475.08H412.062V-52Z" fill="white"/>
<path d="M200.436 280.29L264.048 317.02L342.799 271.552L279.186 234.822L200.436 280.29Z" fill="#EDE3DD"/>
<path d="M257.033 235.973L256.937 280.624L237.003 292.211L237.099 247.56L257.033 235.973Z" fill="#222229"/>
<path d="M237.099 247.557L237.004 292.208L215.278 279.688L215.371 235.036L237.099 247.557Z" fill="#505060"/>
<path d="M284.636 251.929L284.541 296.581L256.941 280.623L257.036 235.972L284.636 251.929Z" fill="#505060"/>
<path d="M322.821 229.738L322.728 274.389L284.542 296.582L284.637 251.93L322.821 229.738Z" fill="#35353F"/>
<path d="M287.359 289.063L287.351 291.676L319.93 272.741L294.031 257.787L287.433 261.622L287.359 289.063Z" fill="#EDE3DD"/>
<path d="M319.931 272.741L320.011 242.688L317.781 243.986L294.029 257.787L319.928 272.741" fill="#9D7D82"/>
<path d="M317.782 243.986L317.709 271.425L287.359 289.065L287.432 261.626L317.782 243.986Z" fill="#222229"/>
<path d="M288.695 262.353L316.511 246.189L316.444 270.696L288.63 286.86L288.696 262.353" fill="#464654"/>
<path d="M322.819 229.739L284.634 251.93L257.034 235.972L237.099 247.559L215.373 235.039L273.494 201.262L322.819 229.739Z" fill="#EDE3DD"/>
<path d="M269.049 248.663L268.982 305.201L264.991 307.518L265.058 250.982L269.049 248.663Z" fill="#C6AEAD"/>
<path d="M265.059 250.982L264.992 307.517L260.975 305.2L261.043 248.662L265.059 250.982Z" fill="#D6C6C3"/>
<path d="M269.049 248.662L265.059 250.982L261.043 248.662L265.033 246.343L269.049 248.662Z" fill="#EDE3DD"/>
<path d="M329.009 227.045L328.998 231.184L262.627 269.503V265.367L329.012 227.044" fill="#2E2E37"/>
<path d="M262.627 265.367V269.504L209.358 238.752V234.615L262.627 265.367Z" fill="#464654"/>
<path d="M329.009 227.044L262.624 265.367L209.355 234.614L275.733 196.598L329.002 227.044" fill="#EDE3DD"/>
<path d="M209.36 190.888V234.616L262.629 265.368V221.641L209.36 190.888Z" fill="#E2D4D0"/>
<path d="M262.626 221.639V265.367L329.011 227.045L329.027 183.305L262.626 221.639Z" fill="#C6AEAD"/>
<path d="M209.36 190.884L262.629 221.637L329.026 183.303L275.757 152.549L209.36 190.884Z" fill="#B49A9C"/>
<path d="M266.623 263.058L276.611 257.314L266.623 251.551V263.058Z" fill="#EDE3DD"/>
<path d="M275.207 233.501L266.623 238.458V251.551L276.612 257.318V232.688L275.207 233.501Z" fill="#9D7D82"/>
<path d="M275.207 233.501V256.53L266.623 261.468V238.459L275.207 233.502" fill="#222229"/>
<path d="M317.563 203.414L315.611 204.54L297.151 215.198L317.563 227.007V203.414Z" fill="#9D7D82"/>
<path d="M297.152 215.199L289.796 219.445V240.741V243.051L317.557 227.019V227.007L297.152 215.199Z" fill="#EDE3DD"/>
<path d="M315.612 204.541V225.841L289.798 240.741V219.445L315.612 204.541Z" fill="#222229"/>
<path d="M290.936 220.105L314.467 206.521V225.181L290.939 238.763L290.936 220.105Z" fill="#464654"/>
<path d="M290.261 258.978L290.255 261.156L262.675 277.088V274.916L290.261 258.978Z" fill="#BFA9A9"/>
<path d="M262.673 274.909V277.087L245.023 266.891L245.028 264.712L262.673 274.909Z" fill="#D6C6C3"/>
<path d="M290.261 258.978L262.675 274.911L245.029 264.714L253.26 259.962L262.627 265.368L281.976 254.196L290.261 258.978Z" fill="#EDE3DD"/>
<path d="M290.261 253.55H290.26V258.978H290.261V253.55Z" fill="#22222B"/>
<path d="M281.149 253.677V246.397L287.413 250.041L281.149 253.677Z" fill="#6A5E62"/>
<path d="M289.429 250.132H287.843V250.293L281.148 246.399V245.603L289.429 250.132Z" fill="#2E2E37"/>
<path d="M288.958 250.132L281.149 245.606L282.223 244.982L289.51 249.206V250.132H288.958Z" fill="#505060"/>
<path d="M252.393 260.428L246.454 256.992L252.396 260.425L252.393 260.428Z" fill="#2A2A36"/>
<path d="M254.156 259.394L247.025 255.282L254.057 252.158L254.156 259.394Z" fill="#787174"/>
<path d="M245.857 255.864H247.444V256.025L254.055 252.153V251.364L245.857 255.864Z" fill="#2E2E37"/>
<path d="M246.329 255.862L254.054 251.356L252.979 250.731L245.776 254.932V255.862H246.329Z" fill="#505060"/>
<path d="M290.26 250.437L262.675 266.369L245.031 256.171V255.376L262.754 265.145L290.26 249.643V250.439" fill="#2E2E37"/>
<path d="M290.26 249.64L262.754 265.597L245.031 255.377L246.105 254.753L262.755 264.349L289.184 249.021L290.26 249.644" fill="#505060"/>
<path d="M245.029 264.713L249.66 262.019L249.678 262.03L245.029 264.713Z" fill="#1A1A22"/>
<path d="M249.677 262.029L249.659 262.018L252.395 260.429L252.424 260.445L249.68 262.029" fill="#30303C"/>
<path d="M262.673 274.908L245.028 264.712L249.676 262.03L252.42 260.445H252.427L259.656 264.621L262.672 266.364L262.673 274.908Z" fill="#948E8E"/>
<path d="M245.029 264.712V259.345L249.66 262.018L245.029 264.712Z" fill="#14141D"/>
<path d="M249.659 262.022L245.029 259.349V256.172L246.453 256.996L252.392 260.432L249.656 262.022" fill="#1F1F2A"/>
<path d="M262.674 266.367L259.658 264.624L262.675 266.367H262.674Z" fill="#22222B"/>
<path d="M285.56 256.262L282.864 254.705L282.872 254.699L285.562 256.26L285.56 256.262Z" fill="#181821"/>
<path d="M262.675 274.908V266.368L282.865 254.707L285.561 256.265L286.199 256.634L290.25 258.984L290.261 258.979L262.676 274.912" fill="#524F53"/>
<path d="M290.261 258.978L286.199 256.633L285.563 256.263L290.26 253.55L290.261 258.978Z" fill="#15151E"/>
<path d="M285.562 256.263L282.872 254.702L290.259 250.438V253.551L285.562 256.263Z" fill="#14141D"/>
<path d="M290.249 258.983L286.199 256.633L290.261 258.978L290.249 258.983Z" fill="#312F36"/>
<path d="M262.675 266.367L275.159 259.136L290.26 250.435L282.873 254.7L282.865 254.706L262.675 266.367Z" fill="#181821"/>
<path d="M329.009 179.166L328.998 183.305L262.627 221.624V217.486L329.012 179.165" fill="#2E2E37"/>
<path d="M262.627 217.486V221.627L209.358 190.875V186.736L262.627 217.486Z" fill="#464654"/>
<path d="M329.009 179.166L262.624 217.487L209.355 186.735L275.733 148.718L329.009 179.166Z" fill="#EDE3DD"/>
<path d="M209.36 143.007V186.735L262.629 217.486V173.762L209.36 143.007Z" fill="#E2D4D0"/>
<path d="M262.626 173.759V217.487L329.011 179.166L329.027 135.425L262.626 173.759Z" fill="#C6AEAD"/>
<path d="M209.36 143.007L262.629 173.759L329.026 135.424L275.757 104.672L209.36 143.007Z" fill="#B49A9C"/>
<path d="M266.623 215.181L276.611 209.437L266.623 203.67V215.181Z" fill="#EDE3DD"/>
<path d="M275.207 185.622L266.623 190.579V203.671L276.612 209.438V184.809L275.207 185.622Z" fill="#9D7D82"/>
<path d="M275.207 185.621V208.649L266.623 213.583V190.578L275.207 185.621Z" fill="#222229"/>
<path d="M317.563 155.534L315.611 156.66L297.151 167.32L317.563 179.125V155.534Z" fill="#9D7D82"/>
<path d="M297.152 167.319L289.796 171.565V192.86V195.169L317.557 179.139V179.127L297.145 167.319" fill="#EDE3DD"/>
<path d="M315.612 156.66V177.959L289.798 192.86V171.564L315.612 156.66Z" fill="#222229"/>
<path d="M290.936 172.224L314.467 158.639V177.299L290.939 190.882L290.936 172.224Z" fill="#464654"/>
<path d="M290.261 211.098L290.255 213.275L262.675 229.207V227.029L290.261 211.098Z" fill="#BFA9A9"/>
<path d="M262.673 227.028V229.206L245.023 219.01L245.028 216.832L262.673 227.028Z" fill="#D6C6C3"/>
<path d="M290.261 211.098L262.675 227.03L245.029 216.832L253.26 212.078L262.627 217.485L281.976 206.314L290.261 211.098Z" fill="#EDE3DD"/>
<path d="M290.261 205.685H290.26V211.098H290.261V205.685Z" fill="#6A5E62"/>
<path d="M290.261 205.67H290.26V205.686H290.261V205.67Z" fill="#61545A"/>
<path d="M290.261 202.555H290.26V205.67H290.261V202.555Z" fill="#1E1E27"/>
<path d="M281.149 205.796V198.52L288.264 201.669L281.149 205.796Z" fill="#6A5E62"/>
<path d="M289.429 202.252H287.843V202.413L281.148 198.518V197.723L289.429 202.252Z" fill="#2E2E37"/>
<path d="M288.958 202.252L281.149 197.726L282.223 197.102L289.51 201.325V202.252H288.958Z" fill="#505060"/>
<path d="M252.392 212.548L245.444 208.525L252.396 212.543L252.392 212.548Z" fill="#2A2A36"/>
<path d="M254.156 211.512L247.88 207.891L254.058 204.27L254.156 211.512Z" fill="#787174"/>
<path d="M245.857 207.981H247.444V208.142L254.055 204.27V203.473L245.857 207.981Z" fill="#2E2E37"/>
<path d="M246.329 207.985L254.054 203.479L252.979 202.855L245.776 207.057V207.984L246.329 207.985Z" fill="#505060"/>
<path d="M290.26 202.555L262.675 218.488L245.031 208.291V207.494L262.754 217.264L290.26 201.762V202.557" fill="#2E2E37"/>
<path d="M290.26 201.761L262.754 217.714L245.031 207.495L246.105 206.873L262.755 216.47L289.185 201.139L290.261 201.763" fill="#505060"/>
<path d="M245.029 216.833L249.648 214.146L249.665 214.157L245.029 216.833Z" fill="#8E8586"/>
<path d="M249.665 214.156L249.647 214.145L249.66 214.137L249.678 214.148L249.665 214.156Z" fill="#726267"/>
<path d="M249.677 214.149L249.659 214.138L252.395 212.547L252.423 212.563L249.679 214.148" fill="#30303C"/>
<path d="M262.673 227.027L245.029 216.83L249.665 214.154L249.677 214.146L252.419 212.565L252.427 212.57L260.287 217.109L262.672 218.488V227.028" fill="#948E8E"/>
<path d="M245.029 214.187V211.48L247.383 212.838L245.029 214.187Z" fill="#4E4A4F"/>
<path d="M245.029 216.833V214.187L247.383 212.838L249.648 214.146L245.029 216.833Z" fill="#4E4A4F"/>
<path d="M247.382 212.838L245.029 211.48V211.466L247.395 212.834L247.383 212.84" fill="#403840"/>
<path d="M249.647 214.146L247.382 212.838L247.395 212.831L249.659 214.139L249.647 214.146Z" fill="#403840"/>
<path d="M249.658 214.138L247.394 212.831L245.028 211.463V208.285L245.442 208.527L252.391 212.55L249.658 214.138Z" fill="#1F1F2A"/>
<path d="M262.674 218.486L260.29 217.108L262.675 218.486H262.674Z" fill="#22222B"/>
<path d="M286.259 208.787L285.573 208.39L286.257 208.787" fill="#463F45"/>
<path d="M285.562 208.382L285.561 208.384L285.574 208.392L285.575 208.389L285.562 208.382Z" fill="#413940"/>
<path d="M285.561 208.383L282.864 206.826L282.874 206.82L285.564 208.381L285.561 208.383Z" fill="#181821"/>
<path d="M262.675 227.028V218.485L282.863 206.826L285.56 208.383L285.573 208.39L286.26 208.787L290.249 211.102L290.26 211.097L262.675 227.029" fill="#524F53"/>
<path d="M290.258 211.098L286.256 208.787L285.573 208.39L290.257 205.685V211.098" fill="#2A272E"/>
<path d="M285.576 208.389L285.563 208.382L290.26 205.671V205.686L285.576 208.389Z" fill="#28242C"/>
<path d="M285.563 208.382L282.873 206.822L290.259 202.557V205.672L285.563 208.382Z" fill="#14141D"/>
<path d="M290.249 211.102L286.259 208.787L290.261 211.098L290.249 211.102Z" fill="#312F36"/>
<path d="M262.675 218.486L275.159 211.258L290.26 202.555L282.873 206.82L282.863 206.826L262.675 218.486Z" fill="#181821"/>
<path d="M265.694 219.737L259.654 225.776L259.655 225.777L265.694 219.737L265.694 219.737Z" fill="#37353C"/>
<path d="M329.034 131.29L329.023 135.428L262.65 173.749V169.611L329.034 131.29Z" fill="#2E2E37"/>
<path d="M262.65 169.611V173.749L209.381 142.997V138.856L262.65 169.611Z" fill="#464654"/>
<path d="M329.034 131.29L262.649 169.611L209.384 138.858L275.762 100.842L329.034 131.29Z" fill="#EDE3DD"/>
<path d="M209.384 95.1299V138.858L262.648 169.611V125.883L209.384 95.1299Z" fill="#E2D4D0"/>
<path d="M262.65 125.883V169.611L329.035 131.289L329.048 87.5483L262.651 125.883" fill="#C6AEAD"/>
<path d="M209.384 95.1299L262.653 125.883L329.051 87.5492L275.784 56.7957L209.384 95.1299Z" fill="#B49A9C"/>
<path d="M266.646 167.305L276.638 161.561L266.649 155.792L266.646 167.305Z" fill="#EDE3DD"/>
<path d="M275.231 137.745L266.647 142.701V155.792L276.638 161.557V136.935L275.233 137.747" fill="#9D7D82"/>
<path d="M275.231 137.746V160.774L266.647 165.711V142.698L275.231 137.742" fill="#222229"/>
<path d="M317.589 107.659L315.637 108.785L297.176 119.438L317.589 131.247V107.659Z" fill="#9D7D82"/>
<path d="M297.176 119.441L289.822 123.687V144.984V147.291L317.588 131.26V131.249L297.176 119.441Z" fill="#EDE3DD"/>
<path d="M315.637 108.784V130.084L289.823 144.985V123.688L315.637 108.784Z" fill="#222229"/>
<path d="M290.964 124.348L314.495 110.763V129.423L290.967 143.005L290.964 124.348Z" fill="#464654"/>
<path d="M290.284 163.22L290.279 165.398L262.699 181.331V179.153L290.284 163.22Z" fill="#BFA9A9"/>
<path d="M262.699 179.152V181.33L245.048 171.134L245.053 168.956L262.699 179.152Z" fill="#D6C6C3"/>
<path d="M290.285 163.221L262.7 179.153L245.053 168.957L253.286 164.204L262.651 169.611L282.002 158.439L290.285 163.221Z" fill="#EDE3DD"/>
<path d="M281.174 157.92V150.643L287.438 154.287L281.174 157.92Z" fill="#6A5E62"/>
<path d="M289.455 154.371H287.866V154.532L281.172 150.636V149.841L289.455 154.371Z" fill="#2E2E37"/>
<path d="M288.983 154.375L281.174 149.85L282.247 149.225L289.535 153.449V154.375H288.983Z" fill="#505060"/>
<path d="M254.181 163.636L247.905 160.015L254.082 156.394L254.181 163.636Z" fill="#787174"/>
<path d="M245.885 160.109H247.471V160.27L254.082 156.395V155.6L245.885 160.109Z" fill="#2E2E37"/>
<path d="M246.356 160.108L254.081 155.602L253.007 154.979L245.804 159.181V160.108L246.356 160.108Z" fill="#505060"/>
<path d="M290.285 154.678L262.699 170.61L245.054 160.413V159.617L262.778 169.387L290.285 153.883V154.678" fill="#2E2E37"/>
<path d="M290.285 153.883L262.779 169.838L245.055 159.618L246.129 158.994L262.78 168.593L289.21 153.261L290.286 153.883" fill="#505060"/>
<path d="M245.053 168.957L249.662 166.276L249.68 166.286L245.053 168.957Z" fill="#8E8586"/>
<path d="M249.68 166.286L249.663 166.275L249.684 166.263L249.702 166.274L249.68 166.286Z" fill="#726267"/>
<path d="M249.701 166.273L249.684 166.262L252.419 164.672L252.448 164.688L249.704 166.272" fill="#30303C"/>
<path d="M262.698 179.151L245.053 168.957L249.68 166.286L249.701 166.274L252.445 164.689H252.452L260.153 169.136L262.697 170.608V179.148" fill="#948E8E"/>
<path d="M245.053 166.295V163.618L247.382 164.962L245.053 166.295Z" fill="#4E4A4F"/>
<path d="M245.053 168.956V166.291L247.382 164.958L249.662 166.276L245.053 168.957" fill="#4E4A4F"/>
<path d="M247.382 164.959L245.053 163.614V163.59L247.404 164.947L247.382 164.959Z" fill="#403840"/>
<path d="M249.662 166.275L247.382 164.959L247.404 164.946L249.684 166.264L249.662 166.275Z" fill="#403840"/>
<path d="M249.687 166.263L247.406 164.947L245.056 163.59V160.413L246.624 161.318L252.418 164.671L249.687 166.263Z" fill="#1F1F2A"/>
<path d="M262.698 170.61L260.155 169.14L262.7 170.609L262.698 170.61Z" fill="#22222B"/>
<path d="M285.585 160.507L282.888 158.95L282.898 158.945L285.588 160.506" fill="#181821"/>
<path d="M262.7 179.155V170.609L282.888 158.95L285.584 160.508L286.42 160.991L290.274 163.229L290.284 163.222L262.7 179.155Z" fill="#524F53"/>
<path d="M290.284 163.219L286.422 160.988L285.59 160.505L290.288 157.792V163.219" fill="#2A272E"/>
<path d="M285.588 160.506L282.898 158.946L290.286 154.681V157.79L285.588 160.506Z" fill="#14141D"/>
<path d="M290.275 163.226L286.421 160.989L290.283 163.22L290.273 163.226" fill="#312F36"/>
<path d="M262.7 170.609L275.183 163.381L290.285 154.678L282.899 158.943L282.889 158.948L262.698 170.609" fill="#181821"/>
<path d="M237.415 114.425L241.438 112.086L241.027 257.19L237.004 259.53L237.415 114.425Z" fill="#AD3733"/>
<path d="M213.506 100.621L217.529 98.2809L241.444 112.085L237.421 114.424L213.506 100.621Z" fill="#EDE3DD"/>
<path d="M237.414 114.424L237.004 259.529L213.094 245.725L213.505 100.62L237.414 114.424Z" fill="#D3534E"/>
<path d="M220.202 208.791L232.493 215.889V218.743L220.202 233.45L218.25 234.617V207.661L220.202 208.787" fill="#BFA9A9"/>
<path d="M232.492 218.744V242.856L218.249 234.631V234.619L220.2 233.451L232.491 218.744" fill="#EDE3DD"/>
<path d="M232.494 215.89V240.55L220.202 233.452V208.791L232.494 215.89Z" fill="#222229"/>
<path d="M231.349 216.549L221.345 210.769V232.792L231.349 238.57V216.549Z" fill="#464654"/>
<path d="M232.283 225.449L220.857 218.85V220.228L232.283 226.826V225.449Z" fill="#222229"/>
<path d="M227.04 223.34L226.097 222.683V213.034L227.04 213.669V223.34Z" fill="#222229"/>
<path d="M220.202 160.498L232.493 167.596V170.45L220.202 185.157L218.25 186.324V159.368L220.202 160.494" fill="#BFA9A9"/>
<path d="M232.492 170.45V194.563L218.249 186.337V186.325L220.2 185.158L232.491 170.451" fill="#EDE3DD"/>
<path d="M232.494 167.597V192.256L220.202 185.158V160.498L232.494 167.597Z" fill="#222229"/>
<path d="M231.349 168.255L221.345 162.475V184.498L231.349 190.278V168.255Z" fill="#464654"/>
<path d="M232.26 177.139L220.834 170.541V171.918L232.26 178.517V177.139Z" fill="#222229"/>
<path d="M227.014 175.03L226.071 174.373V164.724L227.014 165.359V175.03Z" fill="#222229"/>
<path d="M220.202 112.202L232.493 119.301V122.156L220.202 136.864L218.25 138.031V111.074L220.202 112.201" fill="#BFA9A9"/>
<path d="M232.492 122.157V146.272L218.249 138.047V138.035L220.2 136.868L232.492 122.157Z" fill="#EDE3DD"/>
<path d="M232.494 119.301V143.961L220.202 136.864V112.203L232.494 119.301Z" fill="#222229"/>
<path d="M231.349 119.958L221.345 114.178V136.2L231.349 141.978V119.958Z" fill="#464654"/>
<path d="M232.232 128.639L220.806 122.04V123.418L232.232 130.016V128.639Z" fill="#222229"/>
<path d="M226.988 126.53L226.045 125.873V116.223L226.988 116.859V126.53Z" fill="#222229"/>
<path d="M333.947 80.5011L333.935 91.525L263.044 132.445L263.056 121.422L333.947 80.4995" fill="#2E2E37"/>
<path d="M263.057 121.423L263.045 132.447L206.155 99.6425L206.165 88.5768L263.055 121.424" fill="#464654"/>
<path d="M333.947 80.5019L263.056 121.424L206.166 88.5767L277.049 47.6522L333.947 80.5019Z" fill="#505060"/>
<path d="M324.807 80.5003L277.05 52.9285V108.068L319.015 83.8477L324.809 80.5036" fill="#2E2E37"/>
<path d="M215.306 88.576L221.099 91.9202L263.059 116.145L277.051 108.069V52.9285L215.306 88.576Z" fill="#35353F"/>
<path d="M319.014 83.8439L263.056 116.146L221.098 91.9195L277.048 59.6178L319.014 83.8439Z" fill="#464654"/>
<path d="M272.448 96.9766L247.343 82.5176V56.8721L272.448 71.3311V96.9766Z" fill="#D6C6C3"/>
<path d="M301.598 80.1454L272.445 96.9774V71.3311L301.598 54.4999V80.1454Z" fill="#BFA9A9"/>
<path d="M276.493 40.0402L301.599 54.5L272.448 71.3336L247.343 56.8746L276.493 40.0402Z" fill="#EDE3DD"/>
<path d="M249.05 61.3242L250.776 62.3212L259.788 67.525V77.3017L249.049 83.504V61.3242" fill="#A88C8F"/>
<path d="M259.789 77.3026V89.7025L248.972 83.5492L249.052 83.5042L259.789 77.3026Z" fill="#E2D4D0"/>
<path d="M250.775 62.3213V82.4999L259.787 87.7029V67.5251L250.775 62.3213Z" fill="#222229"/>
<path d="M298.374 61.8989V58.7711L300.028 57.8152V62.8532L298.374 61.8989Z" fill="#D6C6C3"/>
<path d="M298.374 58.7745V61.9023L289.939 66.7721V63.6444L298.374 58.7745Z" fill="#222229"/>
<path d="M289.939 66.7686L298.374 61.8988L300.028 62.8539L289.939 68.6797V66.7686Z" fill="#EDE3DD"/>
<path d="M212.494 279.724L212.472 287.822L204.184 292.639L204.206 284.541L212.494 279.724Z" fill="#5D8300"/>
<path d="M204.206 284.541L204.185 292.639L195.845 287.825L195.867 279.727L204.206 284.541Z" fill="#415F06"/>
<path d="M212.494 279.724L204.206 284.541L195.866 279.726L204.155 274.91L212.494 279.724Z" fill="#7AA800"/>
<path d="M229.629 289.507L229.607 297.605L221.319 302.422L221.341 294.324L229.629 289.507Z" fill="#5D8300"/>
<path d="M221.341 294.323L221.319 302.421L212.979 297.607L213.001 289.509L221.341 294.323Z" fill="#415F06"/>
<path d="M229.63 289.506L221.342 294.323L213.002 289.509L221.29 284.692L229.63 289.506Z" fill="#7AA800"/>
<path d="M246.787 299.416L246.764 307.514L238.476 312.331L238.499 304.232L246.787 299.416Z" fill="#5D8300"/>
<path d="M238.499 304.231L238.477 312.331L230.137 307.515L230.159 299.417L238.499 304.231Z" fill="#415F06"/>
<path d="M246.787 299.416L238.499 304.232L230.159 299.417L238.447 294.6L246.787 299.416Z" fill="#7AA800"/>
<path d="M263.922 309.198L263.899 317.297L255.611 322.113L255.634 314.014L263.922 309.198Z" fill="#5D8300"/>
<path d="M255.633 314.018L255.612 322.117L247.272 317.302L247.295 309.203L255.633 314.018Z" fill="#415F06"/>
<path d="M263.924 309.198L255.635 314.014L247.296 309.199L255.584 304.382L263.924 309.198Z" fill="#7AA800"/>
<path d="M133.981 351.049V318.362L113.186 306.357L111.984 307.05V339.738L132.778 351.745L133.981 351.049ZM102.938 333.125V300.438L82.1408 288.432L80.9394 289.126V321.815L101.731 333.819L102.938 333.125ZM75.0581 345.042V279.199L142.8 318.311V384.15L75.0581 345.044" fill="#D2D5E8"/>
<path d="M192.838 295.194L149.854 320.013V372.739L151.175 373.502L194.161 348.684V295.954L192.838 295.194ZM142.797 384.153V318.314L238.91 262.822V328.662L230.966 333.249V281.367L227.089 283.605L199.606 299.472V351.353L142.797 384.152" fill="#EFF1F7"/>
<path d="M75.0547 345.042L142.796 384.149L140.991 385.19L73.2515 346.082L75.0547 345.042Z" fill="white"/>
<path d="M142.797 384.152L199.607 351.353L200.955 352.131L201.41 352.393L142.798 386.234L140.994 385.193L142.797 384.152Z" fill="white"/>
<path d="M230.965 333.248L238.908 328.662L240.712 327.621L242.515 328.662L232.768 334.29L230.965 333.248Z" fill="white"/>
<path d="M230.965 281.366V333.248L227.088 331.009V288.027L228.23 287.367V285.498L227.088 284.84V283.608L230.965 281.366Z" fill="#9298BC"/>
<path d="M201.409 366.416L142.797 400.256V386.234L201.409 352.394V366.416Z" fill="#FDDA4C"/>
<path d="M142.796 400.255L73.2515 360.102V346.083L140.992 385.189L142.796 386.23V400.255Z" fill="#FBC70E"/>
<path d="M232.768 334.289L242.515 328.662V342.684L232.768 348.312V334.289Z" fill="#FDDA4C"/>
<path d="M232.768 334.289V348.311L227.088 345.033V331.009L230.965 333.247L232.768 334.289Z" fill="#FBC70E"/>
<path d="M238.908 326.58L240.711 327.62L238.908 328.662V326.58Z" fill="white"/>
<path d="M227.088 331.009V345.032L223.163 347.297V290.292L227.088 288.027V331.009Z" fill="#40404D"/>
<path d="M220.524 348.82L203.435 358.687V301.682L220.524 291.814V348.82Z" fill="#40404D"/>
<path d="M220.523 291.815V348.821L221.666 349.481V291.155L220.523 291.815Z" fill="#9298BC"/>
<path d="M227.086 283.604V284.839L199.605 300.705V299.471L227.086 283.604Z" fill="#40404D"/>
<path d="M199.606 300.706L227.086 284.841L228.229 285.5L199.605 302.027V300.707" fill="white"/>
<path d="M221.665 335.459V291.156L220.523 291.816L203.434 301.683V360.006L202.094 360.779V302.459L200.953 303.119L199.605 303.896V302.029L228.229 285.503V287.371L227.086 288.031L223.161 290.296V348.621L221.665 349.485L221.665 335.459Z" fill="#E6E8F4"/>
<path d="M202.091 302.455V360.78L201.404 360.385V352.395L200.948 352.134V303.115L202.091 302.455Z" fill="#9298BC"/>
<path d="M200.953 303.115V352.13L199.606 351.352V303.892L200.953 303.115Z" fill="#40404D"/>
<path d="M191.314 347.039L173.565 357.287V345.989L191.314 335.741V347.039Z" fill="#40404D"/>
<path d="M173.565 357.287L191.314 347.04L192.638 347.802L173.567 358.814V357.285" fill="white"/>
<path d="M191.314 347.04V335.742L192.638 334.98V347.803L191.314 347.04Z" fill="#9298BC"/>
<path d="M171.772 344.581L152.701 355.593V354.064L170.45 343.816L171.774 344.58" fill="white"/>
<path d="M170.445 343.818L152.696 354.064V340.323L170.445 330.075V343.818Z" fill="#40404D"/>
<path d="M170.445 343.818V330.075L171.768 329.311V344.581L170.445 343.818Z" fill="#9298BC"/>
<path d="M171.772 327.003L152.701 338.013V336.484L170.445 326.243L171.769 327.007" fill="white"/>
<path d="M170.445 326.239L152.696 336.487V321.652L170.445 311.404V326.239Z" fill="#40404D"/>
<path d="M170.445 326.239V311.405L171.768 310.64V327.002L170.445 326.239Z" fill="#9298BC"/>
<path d="M192.638 298.593V314.954L191.314 314.19V299.356L192.638 298.593Z" fill="#9298BC"/>
<path d="M191.314 299.357V314.191L173.565 324.439V309.605L191.314 299.357Z" fill="#40404D"/>
<path d="M173.565 324.438L191.314 314.19L192.638 314.953L173.567 325.964V324.436" fill="white"/>
<path d="M192.638 317.262V332.533L191.314 331.768V318.025L192.638 317.262Z" fill="#9298BC"/>
<path d="M191.314 318.026V331.769L173.565 342.018V328.275L191.314 318.026Z" fill="#40404D"/>
<path d="M173.565 342.018L191.314 331.769L192.638 332.533L173.567 343.544V342.015" fill="white"/>
<path d="M171.772 359.851L152.701 370.864V369.335L170.45 359.087L171.774 359.849" fill="white"/>
<path d="M170.445 359.088L152.696 369.336V358.039L170.445 347.791V359.088Z" fill="#40404D"/>
<path d="M170.445 359.088V347.791L171.768 347.028V359.85L170.445 359.088Z" fill="#9298BC"/>
<path d="M171.768 347.028V310.641L173.565 309.605V358.814L171.768 359.85V347.028Z" fill="#EFF1F7"/>
<path d="M149.85 320.011L192.836 295.193L194.158 295.955L151.172 320.776L149.85 320.011" fill="white"/>
<path d="M149.85 372.736V320.011L151.172 320.775V373.5L149.85 372.736Z" fill="#9298BC"/>
<path d="M192.638 347.802V334.979L191.314 335.742L173.567 345.989V343.544L192.638 332.533V317.263L191.314 318.026L173.567 328.275V325.965L192.638 314.954V298.594L191.314 299.357L173.567 309.604L171.771 310.641L170.447 311.406L152.698 321.654V338.014L171.768 327.003V329.31L170.445 330.074L152.695 340.322V355.597L171.766 344.585V347.032L170.442 347.795L152.693 358.043V370.867L171.763 359.855L173.567 358.816L192.638 347.802ZM151.174 373.5V320.776L194.16 295.955V348.683L151.174 373.5Z" fill="#EFF1F7"/>
<path d="M83.5369 292.238V300.537L82.3347 301.231V291.545L83.5369 292.238Z" fill="#F8F9F3"/>
<path d="M83.5383 300.537V292.237L100.339 301.937V310.236L83.5383 300.537Z" fill="#2E2E37"/>
<path d="M83.5369 300.536L100.337 310.237V311.624L82.3347 301.232L83.5369 300.536Z" fill="white"/>
<path d="M100.337 331.401L82.3347 321.007L83.5361 320.312L100.337 330.014L100.337 331.401Z" fill="white"/>
<path d="M100.338 330.013L83.5383 320.312V303.977L100.338 313.682V330.013Z" fill="#2E2E37"/>
<path d="M83.5369 303.981V320.315L82.3347 321.01V303.284L83.5369 303.981Z" fill="#F8F9F3"/>
<path d="M82.3347 303.286V301.231L100.337 311.623V313.679L83.5369 303.981L82.3347 303.286Z" fill="#9298BC"/>
<path d="M102.936 300.437V333.125L101.733 333.819V301.131L102.936 300.437Z" fill="#F8F9F3"/>
<path d="M82.1417 288.432L102.936 300.438L101.734 301.132L80.9387 289.125L82.1417 288.432Z" fill="white"/>
<path d="M82.3347 291.545V321.008L100.338 331.4V301.938L83.5369 292.238L82.3347 291.545ZM80.9395 289.127L101.734 301.133V333.82L80.9395 321.814V289.127Z" fill="#9298BC"/>
<path d="M114.583 338.237L113.381 338.931V321.209L114.583 321.903V338.237Z" fill="#F8F9F3"/>
<path d="M113.381 338.932L114.583 338.238L131.383 347.937V349.325L113.381 338.932Z" fill="white"/>
<path d="M114.583 338.236V321.901L131.38 331.603V347.938L114.583 338.236Z" fill="#2E2E37"/>
<path d="M113.381 319.156V309.469L114.583 310.162V318.461L113.381 319.156Z" fill="#F8F9F3"/>
<path d="M114.583 318.461V310.162L131.38 319.862V328.161L114.579 318.46" fill="#2E2E37"/>
<path d="M114.583 318.462L131.384 328.163V329.55L113.381 319.158L114.583 318.462Z" fill="white"/>
<path d="M131.383 329.549V331.604L114.582 321.905L113.381 321.21V319.157L131.383 329.549Z" fill="#9298BC"/>
<path d="M133.981 318.362V351.05L132.779 351.744V319.056L133.981 318.362Z" fill="#F8F9F3"/>
<path d="M113.186 306.357L133.98 318.364L132.778 319.059L111.984 307.05L113.186 306.357Z" fill="white"/>
<path d="M113.379 321.209V338.932L131.382 349.324V319.862L114.582 310.161L113.379 309.467V321.208V321.209ZM132.778 319.057V351.744L111.984 339.737V307.049L132.778 319.057Z" fill="#9298BC"/>
<path d="M169.091 225.454L86.0291 273.406L79.3503 269.552L169.091 217.741V225.454Z" fill="#D2D5E8"/>
<path d="M86.0281 273.408L169.089 225.45L225.657 258.111L142.596 306.069L86.0281 273.408Z" fill="white"/>
<path d="M225.662 258.117L169.094 225.456V217.745L232.34 254.26L225.662 258.117Z" fill="#9298BC"/>
<path d="M142.6 311.44L241.638 254.258V261.971L232.337 267.34L142.6 319.152V311.44Z" fill="#D2D5E8"/>
<path d="M169.09 217.742L79.3501 269.552L86.0289 273.407L142.597 306.069L225.658 258.111L232.337 254.254L169.09 217.742ZM241.64 254.257L142.6 311.44L70.0498 269.552L169.09 212.377L241.64 254.262" fill="#EFF1F7"/>
<path d="M70.0498 269.553L142.602 311.44V319.152L79.3501 282.634L70.0498 277.265V269.554" fill="#9298BC"/>
<path d="M218.653 327.349L216.355 328.675V321.487L218.653 320.16V327.349Z" fill="#E6E8F4"/>
<path d="M195.503 250.171L195.496 252.946C195.454 253.395 195.295 253.826 195.033 254.193C194.771 254.561 194.417 254.852 194.005 255.038L194.013 252.265C194.424 252.079 194.778 251.787 195.04 251.42C195.302 251.052 195.461 250.622 195.503 250.173" fill="#BFC7ED"/>
</g>
</svg>
