<svg width="190" height="109" viewBox="0 0 190 109" fill="none" xmlns="http://www.w3.org/2000/svg">
<g clip-path="url(#clip0_383_96)">
<mask id="mask0_383_96" style="mask-type:luminance" maskUnits="userSpaceOnUse" x="0" y="0" width="190" height="109">
<path d="M190 0H0V109H190V0Z" fill="white"/>
</mask>
<g mask="url(#mask0_383_96)">
<mask id="mask1_383_96" style="mask-type:luminance" maskUnits="userSpaceOnUse" x="0" y="0" width="190" height="109">
<path d="M190 0H0V109H190V0Z" fill="white"/>
</mask>
<g mask="url(#mask1_383_96)">
<path d="M108.544 54.5C108.544 84.5995 84.2468 109 54.2722 109C24.2977 109 0 84.5995 0 54.5C0 24.4005 24.2977 0 54.272 0C84.2464 0 108.544 24.3997 108.544 54.5Z" fill="#FDF6F0"/>
<path d="M101.272 32.0206C115.223 32.0206 126.532 28.7414 126.532 24.6963C126.532 20.6513 115.223 17.3721 101.272 17.3721C87.3209 17.3721 76.0115 20.6513 76.0115 24.6963C76.0115 28.7414 87.3209 32.0206 101.272 32.0206Z" stroke="#AFB7CB" stroke-width="5" stroke-miterlimit="10"/>
<path d="M74.3291 59.0227C74.3291 59.0227 64.4615 51.5358 72.5747 42.9478C72.5747 42.9478 74.5484 40.5257 75.6448 40.5257C76.7412 40.5257 96.915 35.241 96.915 35.241H105.905L127.334 40.5257C127.334 40.5257 132.987 42.8656 132.877 46.8147C132.877 46.8147 134.196 50.6543 132.878 53.6271C131.561 56.5998 131.561 57.8111 128.82 59.0221C126.079 60.2331 105.916 68.4912 102.073 68.0509C98.23 67.6107 74.3291 59.0227 74.3291 59.0227Z" fill="#7B21DD"/>
<path d="M94.3164 54.9304C94.3164 59.6074 96.0289 63.9615 98.9738 67.6113C91.1133 65.3126 74.8743 59.478 74.8743 59.478C74.8743 59.478 65.0073 51.9911 73.1211 43.4047C73.1211 43.4047 75.0927 40.9832 76.1906 40.9832C77.2886 40.9832 97.4594 35.6985 97.4594 35.6985H106.449L106.772 35.7781C99.2439 39.9808 94.3162 46.9908 94.3162 54.931" fill="#6722B5"/>
<path d="M88.3455 56.6371L101.972 53.1145L114.879 56.6371L102.489 60.4905L88.3455 56.6371Z" fill="black"/>
<path d="M65.6418 46.5078C65.6418 46.5078 66.1351 49.9761 68.1088 50.6366C70.0825 51.2972 76.8251 49.6455 76.8251 49.6455C76.8251 49.6455 77.3183 49.9667 79.2919 48.6504C81.2654 47.3341 82.5818 45.3521 82.2522 43.8658C81.9226 42.3796 78.9623 42.049 78.9623 42.049L71.7261 43.8658L45.2484 44.0308V40.7271C45.2484 40.7271 37.8475 38.0848 36.2029 40.7271C34.5584 43.3695 35.5449 51.462 35.5449 51.462C35.5449 51.462 39.9853 55.7558 44.7549 51.462L65.6418 46.5078Z" fill="black"/>
<path d="M129.76 46.5561V52.3366C129.76 52.3366 133.214 53.6577 135.023 52.3366C136.832 51.0155 138.805 49.4371 138.313 48.4924C137.82 47.5476 158.87 48.4924 158.87 48.4924V52.9237C158.87 52.9237 162.16 56.8139 167.422 52.9237V43.2534C167.422 43.2534 162.818 40.776 159.199 42.5927V44.5747L129.76 46.5561Z" fill="black"/>
<path d="M97.5083 39.8185C97.5083 39.8185 93.6436 39.6258 93.0679 41.1121C92.4922 42.5984 91.5879 45.4883 93.0679 45.9839C94.548 46.4794 101.538 45.9839 101.538 45.9839L104.828 46.2042L133.078 53.1141C133.078 53.1141 134.184 48.875 133.088 46.6587C131.991 44.4425 106.226 39.8103 106.226 39.8103L97.5083 39.8185Z" fill="black"/>
<path d="M164.012 49.2511C177.962 49.2511 189.272 45.9719 189.272 41.9268C189.272 37.8817 177.962 34.6025 164.012 34.6025C150.061 34.6025 138.751 37.8817 138.751 41.9268C138.751 45.9719 150.061 49.2511 164.012 49.2511Z" stroke="#AFB7CB" stroke-width="5" stroke-miterlimit="10"/>
<path d="M162.229 41.09L151.265 36.906C151.265 36.906 139.095 38.5579 142.275 42.4113L162.229 41.09Z" fill="#AFB7CB"/>
<path d="M162.696 40.98L173.66 45.1639C173.66 45.1639 185.83 43.5121 182.651 39.6587L162.696 40.98Z" fill="#AFB7CB"/>
<path d="M38.8255 47.1346C52.7763 47.1346 64.0858 43.8554 64.0858 39.8104C64.0858 35.7653 52.7763 32.4861 38.8255 32.4861C24.8746 32.4861 13.5652 35.7653 13.5652 39.8104C13.5652 43.8554 24.8746 47.1346 38.8255 47.1346Z" stroke="#AFB7CB" stroke-width="5" stroke-miterlimit="10"/>
<path d="M39.7144 39.1935L44.9772 41.1751L52.2136 43.9276C52.2136 43.9276 63.8985 41.1749 59.7788 37.762L39.7144 39.1935Z" fill="#AFB7CB"/>
<path d="M39.7145 38.8632L34.4516 36.8816L27.2152 34.1294C27.2152 34.1294 15.5297 36.8816 19.65 40.2946L39.7145 38.8632Z" fill="#AFB7CB"/>
<path d="M97.5085 29.8269C97.5085 29.8269 102.196 26.3586 106.143 29.8269V39.8186C106.143 39.8186 101.291 42.9563 97.5085 39.8186V29.8269Z" fill="black"/>
<path d="M89.6443 20.8653C89.6443 20.8653 98.854 19.1036 100.718 19.9844V24.6964L89.6443 20.8653Z" fill="#AFB7CB"/>
<path d="M111.792 29.0169C111.792 29.0169 102.582 30.7784 100.718 29.8978V25.1858L111.792 29.0169Z" fill="#AFB7CB"/>
<path d="M70.7449 63.8349L101.908 55.5774L132.906 63.8349V92.0756L101.826 100.333L70.7449 91.9108V63.8349Z" fill="#B58D6B"/>
<g opacity="0.2">
<mask id="mask2_383_96" style="mask-type:luminance" maskUnits="userSpaceOnUse" x="70" y="83" width="63" height="18">
<path d="M132.906 83.4055H70.7449V100.416H132.906V83.4055Z" fill="white"/>
</mask>
<g mask="url(#mask2_383_96)">
<path d="M70.7449 91.9931L101.581 83.405L132.906 92.1995L101.581 100.416L70.7449 91.9931Z" fill="black"/>
</g>
</g>
<path d="M101.909 55.5774L101.582 83.3227L132.907 92.1172V63.8349L101.909 55.5774Z" fill="#DEC393"/>
<path d="M120.55 72.5054L129.76 75.4781V83.4054L120.55 81.4234V72.5054Z" fill="#FDF6F0"/>
<path d="M104.772 99.2815C104.772 99.2815 100.037 98.2751 102.545 97.2135C105.054 96.152 120.633 93.2729 120.633 93.2729C120.633 93.2729 124.729 93.3311 125.861 93.87" stroke="black" stroke-width="2" stroke-miterlimit="10"/>
</g>
<mask id="mask3_383_96" style="mask-type:luminance" maskUnits="userSpaceOnUse" x="102" y="78" width="5" height="6">
<path d="M102.167 82.5796L106.772 83.5705V79.6069L102.167 78.1206V82.5796Z" fill="white"/>
</mask>
<g mask="url(#mask3_383_96)">
<path d="M102.167 78.1589V82.6179L102.481 82.6854V78.2604L102.167 78.1589Z" fill="#8B6151"/>
<path d="M102.62 78.2827V82.7417L102.934 82.8092V78.3842L102.62 78.2827Z" fill="#8B6151"/>
<path d="M103.25 78.5186L103.09 82.8094L103.63 82.9326L103.848 78.7011L103.25 78.5186Z" fill="#8B6151"/>
<path d="M103.966 78.7395L103.901 82.9909L104.282 83.06L104.366 78.8685L103.966 78.7395Z" fill="#8B6151"/>
<path d="M106.373 79.377L106.308 83.6284L106.689 83.6974L106.773 79.5059L106.373 79.377Z" fill="#8B6151"/>
<path d="M104.561 78.9124L104.662 83.163L105.166 83.2625V79.1259L104.561 78.9124Z" fill="#8B6151"/>
<path d="M105.386 79.1912L105.442 83.3228L105.727 83.3843V79.3078L105.386 79.1912Z" fill="#8B6151"/>
<path d="M106.003 79.377V83.4433L106.155 83.503L106.211 79.4382L106.003 79.377Z" fill="#8B6151"/>
</g>
<mask id="mask4_383_96" style="mask-type:luminance" maskUnits="userSpaceOnUse" x="0" y="0" width="190" height="109">
<path d="M190 0H0V109H190V0Z" fill="white"/>
</mask>
<g mask="url(#mask4_383_96)">
<g opacity="0.2">
<mask id="mask5_383_96" style="mask-type:luminance" maskUnits="userSpaceOnUse" x="70" y="56" width="63" height="13">
<path d="M132.893 56.9216H70.7314V68.0507H132.893V56.9216Z" fill="white"/>
</mask>
<g mask="url(#mask5_383_96)">
<path d="M70.7314 64.5588L101.895 56.9216L132.893 64.5588V68.0507L102.476 61.4658L70.7314 68.0507V64.5588Z" fill="black"/>
</g>
</g>
<path d="M70.7449 63.8351L101.908 55.5776L132.906 63.8351V67.6109L102.489 60.4908L70.7449 67.6109V63.8351Z" fill="#DEC393"/>
<path d="M101.825 55.5869V60.6282L70.7449 67.6011V63.8255L101.825 55.5869Z" fill="#B58D6B"/>
<path d="M125.839 62.0182C125.839 62.0182 125.181 54.9168 121.563 53.4301C117.945 51.9435 104.788 46.9895 101.827 48.145C98.866 49.3005 96.7287 58.0539 96.7287 58.0539V84.3136C96.7287 84.3136 95.742 85.9655 98.3737 86.6258L101.005 87.2865C101.005 87.2865 102.979 87.7819 100.347 88.4426C97.7159 89.1034 83.2437 92.9017 83.2437 92.9017C83.2437 92.9017 78.6391 93.7272 76.501 91.7456C74.363 89.7639 76.501 61.3576 76.501 61.3576C76.501 61.3576 77.9811 55.0818 79.4611 54.2563C80.9412 53.4307 85.5455 53.5955 87.3553 54.2563C89.1652 54.917 94.9207 56.8986 94.9207 56.8986" stroke="black" stroke-width="2" stroke-miterlimit="10"/>
<path d="M117.572 59.7039C117.478 69.0621 117.384 78.4203 117.291 87.7784" stroke="#FDF6F0" stroke-width="2" stroke-miterlimit="10"/>
<g opacity="0.2">
<mask id="mask6_383_96" style="mask-type:luminance" maskUnits="userSpaceOnUse" x="116" y="59" width="2" height="29">
<path d="M117.389 59.7024H116.817V87.7797H117.389V59.7024Z" fill="white"/>
</mask>
<g mask="url(#mask6_383_96)">
<path d="M117.244 59.7039C117.15 69.0621 117.056 78.4203 116.962 87.7784" stroke="black" stroke-miterlimit="10"/>
</g>
</g>
<path d="M85.4355 59.9497C85.1422 69.2229 85.1343 78.4992 85.4119 87.7787" stroke="#FDF6F0" stroke-width="2" stroke-miterlimit="10"/>
<g opacity="0.2">
<mask id="mask7_383_96" style="mask-type:luminance" maskUnits="userSpaceOnUse" x="85" y="59" width="1" height="29">
<path d="M85.9203 59.9453H85.4031V87.783H85.9203V59.9453Z" fill="white"/>
</mask>
<g mask="url(#mask7_383_96)">
<path d="M85.7746 59.9497C85.4813 69.2229 85.4735 78.4992 85.751 87.7787" stroke="black" stroke-miterlimit="10"/>
</g>
</g>
</g>
</g>
</g>
<defs>
<clipPath id="clip0_383_96">
<rect width="190" height="109" fill="white"/>
</clipPath>
</defs>
</svg>
